# xmcd
#
# Track frame offsets: 
#        150
#        16332
#        32922
#        51872
#        69840
#        89212
#        107522
#        126422
#        141915
#        158481
#        176331
#        194552
#        214907
#        235490
#        250145
#        267977
#        289382
#        313234
#        331265
#
# Disc length: 4617 seconds
#
# Revision: 2
# Processed by: cddbd v1.5.2PL0 Copyright (c) Steve Scherf et al.
# Submitted via: ExactAudioCopyFreeDBPlugin 1.0
#
DISCID=23120713
DTITLE=Ronnie Milsap - The Essential Ronnie Milsap [Double Disc], Disc
DTITLE=2
DYEAR=2006
DGENRE=Country
TTITLE0=I Wouldn't Have Missed It For The World
TTITLE1=Any Day Now
TTITLE2=Stranger in My House
TTITLE3=What A Difference You've Made In My Life
TTITLE4=Lost In The Fifities Tonight (In The Still Of The Night)
TTITLE5=Nobody Likes Sad Songs
TTITLE6=Why Don't You Spend the Night
TTITLE7=Let's Take The Long Way Around The World
TTITLE8=Happy, Happy Birthday Baby
TTITLE9=She Keeps The Home Fires Burning
TTITLE10=Inside
TTITLE11=Where Do The Nights Go
TTITLE12=In Love
TTITLE13=Cowboys and Clowns (From the Motion Picture Bronco Billy)
TTITLE14=Make No Mistake, She's Mine
TTITLE15=How Do I Turn You On
TTITLE16=Still Losing You
TTITLE17=Show Her
TTITLE18=He Got You
EXTD=
EXTT0=
EXTT1=
EXTT2=
EXTT3=
EXTT4=
EXTT5=
EXTT6=
EXTT7=
EXTT8=
EXTT9=
EXTT10=
EXTT11=
EXTT12=
EXTT13=
EXTT14=
EXTT15=
EXTT16=
EXTT17=
EXTT18=
PLAYORDER=
